<svg width="518" height="153" viewBox="0 0 518 153" fill="none" xmlns="http://www.w3.org/2000/svg">
<path d="M61.9406 152.005C60.3513 151.678 45.9819 148.565 31.1772 138.073C16.9602 127.995 0 109.166 0 76.7097V0H127.909V76.7097C127.909 109.166 110.949 127.995 96.7319 138.073C81.9489 148.565 67.5578 151.678 65.9684 152.005L63.9654 152.418L61.9624 152.005H61.9406Z" fill="white"/>
<path d="M64.1172 9.66479H10.2539V77.0797C10.2539 131.564 64.1172 142.492 64.1172 142.492C64.1172 142.492 117.981 131.564 117.981 77.0797V9.66479H64.1172Z" fill="#EEA020"/>
<path d="M64.1183 145.3L63.574 145.191C63.0079 145.082 49.3788 142.231 35.5973 132.457C22.7737 123.38 7.51172 106.401 7.51172 77.0798V7.70581H120.768V77.1015C120.768 106.423 105.485 123.402 92.6828 132.479C78.9013 142.253 65.2722 145.082 64.7061 145.213L64.1618 145.322L64.1183 145.3ZM13.02 12.4294V77.1015C13.02 98.7387 21.6851 115.87 38.7977 127.995C50.1408 136.027 61.5274 139.074 64.14 139.684C66.7527 139.053 78.2917 135.962 89.6348 127.864C106.639 115.739 115.238 98.6734 115.238 77.0798V12.4294H13.02Z" fill="black"/>
<path d="M31.0677 77.9505C31.0677 77.9505 35.6616 70.0923 37.0985 61.9511C37.0985 61.9511 36.9679 57.6193 46.9393 52.3733C46.9393 52.3733 36.8372 53.6794 33.0272 61.9511C33.0272 61.9511 30.8065 73.4881 24.7539 80.1708C24.7539 80.1708 34.856 82.9353 41.2787 93.275C41.2787 93.275 47.5707 94.4504 49.0076 99.0434C49.0076 99.0434 51.9033 105.465 52.2952 110.058C52.6871 114.651 59.6323 116.871 64.0955 116.871V114.107C64.0955 114.107 56.889 114.934 54.6465 108.861C54.6465 108.861 53.3402 94.4504 42.0625 81.9775C42.0625 81.9775 45.3064 87.1582 46.395 91.8165C46.395 91.8165 39.1886 82.8917 31.0459 77.9069L31.0677 77.9505Z" fill="black"/>
<path d="M31.918 66.2829C31.918 66.2829 23.1222 37.3971 30.8729 20.157C30.8729 20.157 42.8692 22.6167 56.3894 44.907V48.5857H53.472C53.472 48.5857 43.7836 33.6748 32.7235 24.5976C32.7235 24.5976 28.5869 42.1642 34.5959 59.339L31.918 66.2829Z" fill="black"/>
<path d="M35.2271 51.9598C35.2271 51.9598 33.4418 34.9809 35.2271 29.9961L44.0228 42.3384L35.9455 35.0898L37.7308 44.4064C37.7308 44.4064 40.2346 43.7533 44.0228 44.4064C44.0228 44.4064 40.0168 45.5383 39.2331 47.1927C39.2331 47.1927 42.956 46.2349 46.8749 46.8444C46.8749 46.8444 37.7308 48.8688 35.2271 51.9598Z" fill="black"/>
<path d="M59.9368 113.802L57.9991 110.493C57.1718 109.078 57.7814 107.206 59.3272 106.64C60.4375 106.248 61.9833 105.922 64.1387 105.922V114.673L59.9368 113.802Z" fill="black"/>
<path d="M53.4704 48.5856L52.1641 50.1311C52.1641 50.1311 64.1385 49.957 64.1385 58.8818V45.2334C64.1385 45.2334 60.9599 43.013 55.1033 42.8171L53.4704 48.5856Z" fill="black"/>
<path d="M64.1408 130.846C64.1408 130.846 57.7834 123.576 46.5274 116.327C31.9403 106.945 28.9141 81.8904 28.9141 81.8904C28.9141 81.8904 32.5064 82.0645 34.4223 84.6331C36.3382 87.2017 34.7489 96.9102 42.6956 107.228C50.664 117.546 64.119 119.94 64.119 130.846H64.1408Z" fill="black"/>
<path d="M97.1879 77.9505C97.1879 77.9505 92.5941 70.0923 91.1571 61.9511C91.1571 61.9511 91.2878 57.6193 81.3163 52.3733C81.3163 52.3733 91.4184 53.6794 95.2285 61.9511C95.2285 61.9511 97.4492 73.4881 103.502 80.1708C103.502 80.1708 93.3996 82.9353 86.977 93.275C86.977 93.275 80.6849 94.4504 79.248 99.0434C79.248 99.0434 76.3523 105.465 75.9604 110.058C75.5686 114.651 68.6234 116.871 64.1602 116.871V114.107C64.1602 114.107 71.3666 114.934 73.6091 108.861C73.6091 108.861 74.9154 94.4504 86.1932 81.9775C86.1932 81.9775 82.9492 87.1582 81.8606 91.8165C81.8606 91.8165 89.067 82.8917 97.2097 77.9069L97.1879 77.9505Z" fill="black"/>
<path d="M96.3386 66.2829C96.3386 66.2829 105.134 37.3971 97.3837 20.157C97.3837 20.157 85.3874 22.6167 71.8672 44.907V48.5857H74.7846C74.7846 48.5857 84.473 33.6748 95.5331 24.5976C95.5331 24.5976 99.6697 42.1642 93.6607 59.339L96.3386 66.2829Z" fill="black"/>
<path d="M93.0307 51.9598C93.0307 51.9598 94.816 34.9809 93.0307 29.9961L84.2349 42.3384L92.3122 35.0898L90.5269 44.4064C90.5269 44.4064 88.0232 43.7533 84.2349 44.4064C84.2349 44.4064 88.2409 45.5383 89.0247 47.1927C89.0247 47.1927 85.3017 46.2349 81.3828 46.8444C81.3828 46.8444 90.5269 48.8688 93.0307 51.9598Z" fill="black"/>
<path d="M68.3191 113.802L70.2568 110.493C71.0841 109.078 70.4745 107.206 68.9287 106.64C67.8184 106.248 66.2726 105.922 64.1172 105.922V114.673L68.3191 113.802Z" fill="black"/>
<path d="M74.7853 48.5856L76.0917 50.1311C76.0917 50.1311 64.1172 49.957 64.1172 58.8818V45.2334C64.1172 45.2334 67.2959 43.013 73.1525 42.8171L74.7853 48.5856Z" fill="black"/>
<path d="M64.1406 130.846C64.1406 130.846 70.498 123.576 81.754 116.327C96.341 106.945 99.3673 81.8904 99.3673 81.8904C99.3673 81.8904 95.775 82.0645 93.8591 84.6331C91.9432 87.2017 93.5325 96.9102 85.5858 107.228C77.6391 117.546 64.1624 119.94 64.1624 130.846H64.1406Z" fill="black"/>
<path d="M43.5859 69.8311L49.1813 71.8555L54.9943 77.0797L52.36 78.4076L46.8517 77.0797L43.5859 69.8311Z" fill="#EF4323"/>
<path d="M84.8241 69.8311L79.2288 71.8555L73.4375 77.0797L76.0501 78.4076L81.5584 77.0797L84.8241 69.8311Z" fill="#EF4323"/>
<path d="M56.1943 59.9485C56.1943 59.9485 59.4601 70.4188 59.0246 75.1642C59.0246 75.1642 56.5862 76.0784 53.168 73.0745C49.7499 70.0487 45.0254 66.1305 37.0352 67.4366C37.0352 67.4366 42.674 70.7671 44.6335 75.839C46.593 80.9109 54.9969 78.8647 54.9969 78.8647C54.9969 78.8647 56.4338 84.1107 56.1725 87.5283C56.1725 87.5283 57.4788 81.2374 59.5907 78.0811L61.8114 76.9056C61.8114 76.9056 62.5952 69.0474 56.1725 59.992L56.1943 59.9485ZM45.3955 71.8772C45.3955 71.8772 48.0081 71.616 49.4668 73.4445C50.9038 75.273 53.5381 76.9927 53.5381 76.9927C46.7236 77.9069 45.3955 71.8772 45.3955 71.8772Z" fill="black"/>
<path d="M75.0899 73.0745C71.6717 76.1002 69.2333 75.1642 69.2333 75.1642C68.7978 70.4188 72.0636 59.9485 72.0636 59.9485C65.6409 69.0039 66.4247 76.8621 66.4247 76.8621L68.6454 78.0375C70.7355 81.1938 72.0636 87.4847 72.0636 87.4847C71.8023 84.0672 73.2393 78.8212 73.2393 78.8212C73.2393 78.8212 81.6432 80.8673 83.6026 75.7954C85.5621 70.7235 91.201 67.3931 91.201 67.3931C83.1889 66.087 78.4862 70.0052 75.0681 73.0309L75.0899 73.0745ZM74.7415 76.9927C74.7415 76.9927 77.3759 75.2948 78.8128 73.4445C80.2498 71.5943 82.8841 71.8772 82.8841 71.8772C82.8841 71.8772 81.5778 77.9069 74.7415 76.9927Z" fill="black"/>
<g clip-path="url(#clip0_2105_14)">
<path d="M322.004 57.9015L344.718 16H324.248L312.279 38.6146L300.038 16H279.5L302.146 57.9015V88.2581L312.143 98.1053L322.004 88.2581V57.9015Z" fill="white"/>
<path d="M445.302 31.8913H464.684V16H406.062V31.8913H425.376V88.2581L435.373 98.1053L445.302 88.2581V31.8913Z" fill="white"/>
<path d="M403.544 77.1205V27.0696L392.323 16H352.675L341.59 27.0696V88.3939L372.669 98.0374L403.544 88.326V77.0526V77.1205ZM361.516 62.1121V34.1324L367.364 39.6333H377.837L383.686 34.1324V73.725L372.601 77.1205L361.516 73.725V62.18V62.1121Z" fill="white"/>
<path d="M282.833 77.1205V27.0696L271.612 16H231.964L220.879 27.0696V88.3939L251.958 98.0374L282.833 88.326V77.0526V77.1205ZM240.805 62.1121V34.1324L246.653 39.6333H257.127L262.975 34.1324V73.725L251.89 77.1205L240.805 73.725V62.18V62.1121Z" fill="white"/>
<path d="M518.001 89.073V88.2581V73.657H486.786V59.5993H512.085V44.6587H486.786V31.8913H517.797V16H478.081L466.996 27.0696V78.0034V88.2581V89.1409L492.567 98.1053L518.001 89.073Z" fill="white"/>
<path d="M217.954 88.3939V77.1205V65.3718H198.028V73.725L187.011 77.1205L175.926 73.725V62.1121V34.1324H181.775H192.18H198.028V42.893H217.954V27.0696L206.733 16H167.085L156 27.0696V62.1121V77.1205V88.4618L187.079 98.1053L217.954 88.3939Z" fill="white"/>
<path d="M164.841 111.891H172.73L180.074 136.068H173.886L172.526 130.975H164.841L163.481 136.068H157.496L164.841 111.891ZM171.165 126.017L168.649 116.577L166.065 126.017H171.165Z" fill="#EEA020"/>
<path d="M182.793 111.891H188.506V136.068H182.793V111.891Z" fill="#EEA020"/>
<path d="M193.402 111.891H206.868C210.064 111.891 211.628 113.385 211.628 116.645V122.689C211.628 125.406 210.54 126.9 208.296 127.307L212.512 136.068H206.528L202.515 127.783H199.183V136.068H193.47V111.891H193.402ZM205.236 122.961C205.712 122.961 205.916 122.825 205.916 122.282V117.392C205.916 116.849 205.712 116.713 205.236 116.713H199.115V122.961H205.236Z" fill="#EEA020"/>
<path d="M215.234 131.246V128.054H220.879V130.499C220.879 130.975 221.083 131.178 221.559 131.178H227C227.476 131.178 227.68 130.975 227.68 130.499V127.986C227.68 127.443 227.408 127.239 226.728 127.104L220.335 125.542C217.139 124.727 215.37 123.844 215.37 120.584V116.645C215.37 113.385 216.935 111.891 220.131 111.891H228.292C231.488 111.891 233.052 113.385 233.052 116.645V119.565H227.408V117.392C227.408 116.849 227.204 116.713 226.728 116.713H221.763C221.287 116.713 221.083 116.849 221.083 117.392V119.633C221.083 120.177 221.287 120.38 222.035 120.516L228.496 122.078C231.692 122.893 233.46 123.776 233.46 127.036V131.246C233.46 134.438 231.896 136 228.7 136H220.063C216.867 136 215.302 134.438 215.302 131.246H215.234Z" fill="#EEA020"/>
<path d="M237.062 131.246V116.645C237.062 113.385 238.627 111.891 241.823 111.891H251.14C254.404 111.891 255.9 113.385 255.9 116.645V131.246C255.9 134.438 254.404 136 251.14 136H241.823C238.627 136 237.062 134.438 237.062 131.246ZM243.455 131.042H249.508C250.052 131.042 250.188 130.839 250.188 130.363V117.46C250.188 116.917 250.052 116.781 249.508 116.781H243.455C242.979 116.781 242.775 116.917 242.775 117.46V130.363C242.775 130.839 242.979 131.042 243.455 131.042Z" fill="#EEA020"/>
<path d="M260.324 111.891H276.986V116.849H266.037V121.535H274.81V126.425H266.037V136H260.324V111.823V111.891Z" fill="#EEA020"/>
<path d="M284.94 116.849H278.684V111.823H297.045V116.849H290.721V136H285.008V116.849H284.94Z" fill="#EEA020"/>
<path d="M307.043 131.246V127.715C307.043 125.813 307.655 124.183 309.763 123.64C307.791 122.961 307.315 121.671 307.315 119.565V116.577C307.315 113.318 308.811 111.823 312.075 111.823H319.012C322.208 111.823 323.773 113.385 323.773 116.577V119.09H318.06V117.324C318.06 116.781 317.924 116.645 317.38 116.645H313.708C313.164 116.645 313.028 116.781 313.028 117.324V120.584C313.028 121.127 313.164 121.263 313.708 121.263H327.513V126.017H325.065V131.246C325.065 134.37 323.297 136 320.1 136H311.803C308.539 136 307.043 134.438 307.043 131.246ZM313.436 131.178H318.876C319.352 131.178 319.556 130.975 319.556 130.499V126.017H313.504C312.96 126.017 312.824 126.221 312.824 126.696V130.499C312.824 130.975 312.96 131.178 313.504 131.178H313.436Z" fill="#EEA020"/>
<path d="M338.871 111.891H352.336C355.533 111.891 357.097 113.385 357.097 116.645V123.504C357.097 126.764 355.533 128.258 352.336 128.258H344.584V136.068H338.871V111.891ZM350.704 123.301C351.18 123.301 351.384 123.165 351.384 122.621V117.46C351.384 116.917 351.18 116.781 350.704 116.781H344.584V123.301H350.704Z" fill="#EEA020"/>
<path d="M364.304 111.891H372.193L379.538 136.068H373.349L371.989 130.975H364.304L362.944 136.068H357.027L364.372 111.891H364.304ZM370.629 126.017L368.112 116.577L365.528 126.017H370.629Z" fill="#EEA020"/>
<path d="M382.258 111.891H387.97V136.068H382.258V111.891Z" fill="#EEA020"/>
<path d="M392.867 111.891H398.716L407.217 126.085V111.891H412.793V136.068H407.489L398.444 121.059V136.068H392.867V111.891Z" fill="#EEA020"/>
<path d="M422.245 116.849H415.988V111.823H434.35V116.849H428.025V136H422.313V116.849H422.245Z" fill="#EEA020"/>
<path d="M437.48 111.891H450.81C454.006 111.891 455.57 113.385 455.57 116.645V119.633C455.57 121.739 455.026 123.029 453.054 123.708C455.162 124.183 455.842 125.881 455.842 127.783V131.314C455.842 134.506 454.278 136.068 451.082 136.068H437.48V111.891ZM449.178 121.399C449.654 121.399 449.858 121.195 449.858 120.72V117.256C449.858 116.713 449.654 116.577 449.178 116.577H443.193V121.399H449.178ZM449.45 131.246C449.926 131.246 450.13 131.042 450.13 130.567V126.56C450.13 126.017 449.926 125.881 449.45 125.881H443.193V131.246H449.45Z" fill="#EEA020"/>
<path d="M464.749 111.891H472.638L479.983 136.068H473.794L472.434 130.975H464.749L463.389 136.068H457.473L464.817 111.891H464.749ZM471.142 126.017L468.626 116.577L466.041 126.017H471.142Z" fill="#EEA020"/>
<path d="M482.773 111.891H488.486V130.975H498.551V136H482.773V111.823V111.891Z" fill="#EEA020"/>
<path d="M501.883 111.891H507.595V130.975H517.66V136H501.883V111.823V111.891Z" fill="#EEA020"/>
</g>
<defs>
<clipPath id="clip0_2105_14">
<rect width="362" height="120" fill="white" transform="translate(156 16)"/>
</clipPath>
</defs>
</svg>
